<svg width="177" height="33" viewBox="0 0 177 33" fill="none" xmlns="http://www.w3.org/2000/svg">
<path fill-rule="evenodd" clip-rule="evenodd" d="M36.2122 29.046C37.2795 26.9065 37.8799 24.4934 37.8799 21.94C37.8799 13.1366 30.7433 6 21.94 6C13.1366 6 6 13.1366 6 21.94C6 25.9105 7.45175 29.542 9.85341 32.3326H2.61272C0.945896 29.2393 0 25.7001 0 21.94C0 9.82285 9.82285 0 21.94 0C34.0571 0 43.8799 9.82285 43.8799 21.94C43.8799 24.427 43.4661 26.8174 42.7036 29.046H36.2122Z" fill="url(#paint0_linear_1_180)"/>
<path fill-rule="evenodd" clip-rule="evenodd" d="M16.6157 6.83023C16.3534 7.97729 16.2148 9.1715 16.2148 10.3981C16.2148 19.2015 23.3514 26.338 32.1548 26.338C40.9582 26.338 48.0947 19.2015 48.0947 10.3981C48.0947 6.42751 46.643 2.79603 44.2413 0.00546179L51.482 0.00546242C53.1488 3.09876 54.0947 6.63796 54.0947 10.3981C54.0947 22.5152 44.2719 32.338 32.1548 32.338C20.2559 32.338 10.5694 22.8658 10.2243 11.0504C11.9629 9.16705 14.1498 7.70381 16.6157 6.83023Z" fill="url(#paint1_linear_1_180)"/>
<path d="M85.0439 16.0026C85.0439 17.7885 84.7172 19.3241 84.0638 20.6091C83.4104 21.8887 82.5147 22.8742 81.3767 23.5658C80.2441 24.2518 78.9563 24.5949 77.5134 24.5949C76.065 24.5949 74.7718 24.2518 73.6338 23.5658C72.5012 22.8742 71.6082 21.886 70.9548 20.6009C70.3014 19.3159 69.9747 17.7831 69.9747 16.0026C69.9747 14.2166 70.3014 12.6838 70.9548 11.4042C71.6082 10.1192 72.5012 9.1336 73.6338 8.44752C74.7718 7.75599 76.065 7.41023 77.5134 7.41023C78.9563 7.41023 80.2441 7.75599 81.3767 8.44752C82.5147 9.1336 83.4104 10.1192 84.0638 11.4042C84.7172 12.6838 85.0439 14.2166 85.0439 16.0026ZM82.5446 16.0026C82.5446 14.6413 82.3241 13.4951 81.8831 12.564C81.4475 11.6274 80.8485 10.9196 80.0862 10.4404C79.3293 9.9558 78.4717 9.7135 77.5134 9.7135C76.5496 9.7135 75.6893 9.9558 74.9324 10.4404C74.1756 10.9196 73.5766 11.6274 73.1355 12.564C72.6999 13.4951 72.4821 14.6413 72.4821 16.0026C72.4821 17.3638 72.6999 18.5127 73.1355 19.4493C73.5766 20.3804 74.1756 21.0883 74.9324 21.5729C75.6893 22.052 76.5496 22.2916 77.5134 22.2916C78.4717 22.2916 79.3293 22.052 80.0862 21.5729C80.8485 21.0883 81.4475 20.3804 81.8831 19.4493C82.3241 18.5127 82.5446 17.3638 82.5446 16.0026ZM87.9945 29.0707V11.8207H90.3794V13.8545H90.5836C90.7252 13.5931 90.9294 13.2909 91.1962 12.9479C91.463 12.6048 91.8333 12.3054 92.307 12.0494C92.7807 11.7881 93.4069 11.6574 94.1855 11.6574C95.1983 11.6574 96.1022 11.9133 96.8972 12.4251C97.6922 12.937 98.3156 13.6748 98.7676 14.6386C99.2249 15.6023 99.4536 16.7621 99.4536 18.118C99.4536 19.4738 99.2277 20.6363 98.7757 21.6055C98.3238 22.5693 97.703 23.3126 96.9135 23.8353C96.124 24.3526 95.2228 24.6112 94.21 24.6112C93.4477 24.6112 92.8243 24.4833 92.3396 24.2273C91.8605 23.9714 91.4848 23.6719 91.2125 23.3289C90.9403 22.9859 90.7306 22.6809 90.5836 22.4141H90.4366V29.0707H87.9945ZM90.3876 18.0935C90.3876 18.9756 90.5155 19.7488 90.7715 20.4131C91.0274 21.0774 91.3976 21.5974 91.8823 21.9731C92.3669 22.3433 92.9604 22.5285 93.6628 22.5285C94.3924 22.5285 95.0023 22.3352 95.4923 21.9486C95.9824 21.5565 96.3527 21.0256 96.6031 20.3559C96.8591 19.6862 96.987 18.932 96.987 18.0935C96.987 17.2658 96.8618 16.5226 96.6113 15.8637C96.3663 15.2049 95.996 14.6849 95.5005 14.3037C95.0105 13.9225 94.3979 13.732 93.6628 13.732C92.9549 13.732 92.356 13.9144 91.8659 14.2792C91.3813 14.644 91.0138 15.1531 90.7633 15.8065C90.5128 16.4599 90.3876 17.2223 90.3876 18.0935ZM107.597 24.6194C106.361 24.6194 105.296 24.3553 104.403 23.8271C103.516 23.2935 102.83 22.5448 102.345 21.581C101.866 20.6118 101.626 19.4765 101.626 18.1751C101.626 16.8901 101.866 15.7575 102.345 14.7774C102.83 13.7973 103.505 13.0323 104.371 12.4823C105.242 11.9324 106.26 11.6574 107.425 11.6574C108.133 11.6574 108.819 11.7745 109.483 12.0086C110.148 12.2427 110.744 12.6103 111.272 13.1112C111.8 13.6122 112.217 14.2629 112.522 15.0633C112.827 15.8583 112.979 16.8248 112.979 17.9628V18.8286H103.007V16.999H110.586C110.586 16.3565 110.455 15.7875 110.194 15.292C109.933 14.791 109.565 14.3963 109.091 14.1077C108.623 13.8191 108.073 13.6748 107.442 13.6748C106.755 13.6748 106.157 13.8436 105.645 14.1812C105.138 14.5133 104.746 14.9489 104.469 15.488C104.196 16.0216 104.06 16.6015 104.06 17.2277V18.657C104.06 19.4956 104.207 20.2089 104.501 20.7969C104.801 21.385 105.217 21.8342 105.751 22.1446C106.284 22.4495 106.908 22.602 107.621 22.602C108.084 22.602 108.506 22.5367 108.887 22.406C109.268 22.2698 109.598 22.0684 109.876 21.8016C110.153 21.5348 110.366 21.2053 110.513 20.8133L112.824 21.2298C112.639 21.9105 112.307 22.5067 111.828 23.0185C111.354 23.5249 110.758 23.9197 110.039 24.2028C109.326 24.4805 108.512 24.6194 107.597 24.6194ZM118.131 16.9173V24.3662H115.689V11.8207H118.033V13.8626H118.188C118.477 13.1983 118.929 12.6647 119.544 12.2618C120.165 11.8589 120.946 11.6574 121.888 11.6574C122.743 11.6574 123.492 11.8371 124.134 12.1965C124.777 12.5504 125.275 13.0786 125.629 13.781C125.983 14.4834 126.16 15.3519 126.16 16.3864V24.3662H123.718V16.6805C123.718 15.7711 123.481 15.0606 123.007 14.5487C122.533 14.0314 121.883 13.7728 121.055 13.7728C120.489 13.7728 119.985 13.8953 119.544 14.1403C119.108 14.3854 118.763 14.7447 118.507 15.2185C118.256 15.6867 118.131 16.253 118.131 16.9173ZM127.75 9.81151V7.63892H140.696V9.81151H135.477V24.3662H132.961V9.81151H127.75ZM157.368 16.0026C157.368 17.7885 157.041 19.3241 156.388 20.6091C155.735 21.8887 154.839 22.8742 153.701 23.5658C152.568 24.2518 151.281 24.5949 149.838 24.5949C148.389 24.5949 147.096 24.2518 145.958 23.5658C144.825 22.8742 143.932 21.886 143.279 20.6009C142.626 19.3159 142.299 17.7831 142.299 16.0026C142.299 14.2166 142.626 12.6838 143.279 11.4042C143.932 10.1192 144.825 9.1336 145.958 8.44752C147.096 7.75599 148.389 7.41023 149.838 7.41023C151.281 7.41023 152.568 7.75599 153.701 8.44752C154.839 9.1336 155.735 10.1192 156.388 11.4042C157.041 12.6838 157.368 14.2166 157.368 16.0026ZM154.869 16.0026C154.869 14.6413 154.648 13.4951 154.207 12.564C153.772 11.6274 153.173 10.9196 152.41 10.4404C151.654 9.9558 150.796 9.7135 149.838 9.7135C148.874 9.7135 148.014 9.9558 147.257 10.4404C146.5 10.9196 145.901 11.6274 145.46 12.564C145.024 13.4951 144.806 14.6413 144.806 16.0026C144.806 17.3638 145.024 18.5127 145.46 19.4493C145.901 20.3804 146.5 21.0883 147.257 21.5729C148.014 22.052 148.874 22.2916 149.838 22.2916C150.796 22.2916 151.654 22.052 152.41 21.5729C153.173 21.0883 153.772 20.3804 154.207 19.4493C154.648 18.5127 154.869 17.3638 154.869 16.0026ZM174.016 7.63892V24.3662H171.696L163.194 12.0984H163.039V24.3662H160.515V7.63892H162.851L171.361 19.923H171.516V7.63892H174.016Z" fill="white"/>
<defs>
<linearGradient id="paint0_linear_1_180" x1="0" y1="0" x2="43.8799" y2="32.3326" gradientUnits="userSpaceOnUse">
<stop stop-color="white"/>
<stop offset="1" stop-color="#E0E0E0"/>
</linearGradient>
<linearGradient id="paint1_linear_1_180" x1="54.0947" y1="32.338" x2="10.2176" y2="0.0145547" gradientUnits="userSpaceOnUse">
<stop stop-color="white"/>
<stop offset="1" stop-color="#E0E0E0"/>
</linearGradient>
</defs>
</svg>
