<svg width="22" height="22" viewBox="0 0 22 22" fill="none" xmlns="http://www.w3.org/2000/svg">
<circle cx="11" cy="11" r="10.25" stroke="white" stroke-width="1.5"/>
<path d="M14.25 11C14.25 13.9736 13.8105 16.6329 13.1236 18.5219C12.779 19.4694 12.3864 20.1835 11.9883 20.6466C11.588 21.1122 11.2515 21.25 11 21.25C10.7485 21.25 10.412 21.1122 10.0117 20.6466C9.61356 20.1835 9.22099 19.4694 8.87642 18.5219C8.18952 16.6329 7.75 13.9736 7.75 11C7.75 8.02637 8.18952 5.3671 8.87642 3.47813C9.22099 2.53057 9.61356 1.81652 10.0117 1.35338C10.412 0.887802 10.7485 0.75 11 0.75C11.2515 0.75 11.588 0.887802 11.9883 1.35338C12.3864 1.81652 12.779 2.53057 13.1236 3.47813C13.8105 5.3671 14.25 8.02637 14.25 11Z" stroke="white" stroke-width="1.5"/>
<path d="M11 14.25C8.02637 14.25 5.3671 13.8105 3.47813 13.1236C2.53057 12.779 1.81652 12.3864 1.35338 11.9883C0.887802 11.588 0.75 11.2515 0.75 11C0.75 10.7485 0.887802 10.412 1.35338 10.0117C1.81652 9.61356 2.53057 9.22099 3.47813 8.87642C5.3671 8.18952 8.02637 7.75 11 7.75C13.9736 7.75 16.6329 8.18952 18.5219 8.87642C19.4694 9.22099 20.1835 9.61356 20.6466 10.0117C21.1122 10.412 21.25 10.7485 21.25 11C21.25 11.2515 21.1122 11.588 20.6466 11.9883C20.1835 12.3864 19.4694 12.779 18.5219 13.1236C16.6329 13.8105 13.9736 14.25 11 14.25Z" stroke="white" stroke-width="1.5"/>
</svg>
